<?xml version="1.0" encoding="UTF-8"?>
<svg xmlns="http://www.w3.org/2000/svg" width="189" height="62" viewBox="0 0 189 62" fill="none">
  <g clip-path="url(#clip0_2003_246)">
    <path d="M37.8223 56.5994H39.0178V61.9299H37.8223V56.5994Z" fill="#E1D9C1"></path>
    <path d="M46.923 57.6939H44.4763V61.9299H43.2808V56.5994H46.923V57.6939Z" fill="#E1D9C1"></path>
    <path d="M49.8672 59.2646C49.8672 57.6238 50.924 56.5293 52.4943 56.5293C54.0646 56.5293 55.1214 57.6098 55.1214 59.2646C55.1214 60.9194 54.0646 61.9999 52.4943 61.9999C50.924 61.9999 49.8672 60.9194 49.8672 59.2646ZM53.898 59.2646C53.898 58.2401 53.3429 57.5678 52.4943 57.5678C51.6457 57.5678 51.0905 58.2421 51.0905 59.2646C51.0905 60.2871 51.6457 60.9614 52.4943 60.9614C53.3429 60.9614 53.898 60.2871 53.898 59.2646Z" fill="#E1D9C1"></path>
    <path d="M63.2783 58.3122C63.2783 59.3927 62.5269 60.023 61.2619 60.023H60.1912V61.9299H59.0095V56.5994H61.2619C62.5269 56.5994 63.2783 57.2437 63.2783 58.3102V58.3122ZM62.0688 58.3402C62.0688 57.85 61.7358 57.6099 61.1231 57.6099H60.1912V59.0686H61.1231C61.7338 59.0686 62.0688 58.8164 62.0688 58.3382V58.3402Z" fill="#E1D9C1"></path>
    <path d="M71.1002 61.9299H69.9046V60.023H68.8894L67.791 61.9299H66.4983L67.7494 59.8389C67.1248 59.5728 66.7759 59.0385 66.7759 58.2962C66.7759 57.2297 67.5273 56.5994 68.7923 56.5994H71.1002V61.9299ZM69.9046 59.0546V57.6099H68.8756C68.2926 57.6099 67.9853 57.862 67.9853 58.3242C67.9853 58.7864 68.2907 59.0546 68.8756 59.0546H69.9046Z" fill="#E1D9C1"></path>
    <path d="M84.5369 61.9299H83.3414V60.023H82.3262L81.2278 61.9299H79.9351L81.1861 59.8389C80.5596 59.5728 80.2126 59.0385 80.2126 58.2962C80.2126 57.2297 80.9641 56.5994 82.2291 56.5994H84.5369V61.9299ZM83.3414 59.0546V57.6099H82.3123C81.7294 57.6099 81.4221 57.862 81.4221 58.3242C81.4221 58.7864 81.7274 59.0546 82.3123 59.0546H83.3414Z" fill="#E1D9C1"></path>
    <path d="M88.425 59.2646C88.425 57.6238 89.468 56.5293 91.0105 56.5293C92.1506 56.5293 92.9853 57.1036 93.2906 58.086L92.1644 58.4782C91.9701 57.8619 91.5676 57.5378 90.9827 57.5378C90.1619 57.5378 89.6484 58.1981 89.6484 59.2626C89.6484 60.3271 90.148 60.9875 90.9827 60.9875C91.5657 60.9875 91.9701 60.6653 92.1644 60.047L93.2906 60.4392C92.9992 61.4217 92.1506 61.9959 91.0105 61.9959C89.4541 61.9959 88.425 60.9154 88.425 59.2606V59.2646Z" fill="#E1D9C1"></path>
    <path d="M101.364 60.2191C101.364 61.2856 100.613 61.9299 99.3478 61.9299H97.0815V56.5994H98.2771V58.5063H99.3478C100.613 58.5063 101.364 59.1366 101.364 60.2171V60.2191ZM100.155 60.1911C100.155 59.7149 99.8494 59.4608 99.2645 59.4608H98.2771V60.9195H99.2645C99.8474 60.9195 100.155 60.6813 100.155 60.1891V60.1911Z" fill="#E1D9C1"></path>
    <path d="M107.074 59.5467L106.378 60.2491V61.9319H105.183V56.6013H106.378V58.8604L108.492 56.6013H109.979L107.921 58.6923L110.062 61.9319H108.645L107.074 59.5467Z" fill="#E1D9C1"></path>
    <path d="M117.607 60.8794V61.9319H113.715V56.6013H117.537V57.6538H114.882V58.6923H116.913V59.7028H114.882V60.8814H117.607V60.8794Z" fill="#E1D9C1"></path>
    <path d="M125.736 60.4712C125.736 61.3837 125.068 61.9299 123.929 61.9299H121.441V56.5994H123.916C125 56.5994 125.639 57.1316 125.639 58.0161C125.639 58.5623 125.389 58.9705 124.957 59.2086C125.456 59.4467 125.736 59.883 125.736 60.4712ZM122.581 57.5678V58.7464H123.721C124.221 58.7464 124.473 58.5503 124.473 58.1581C124.473 57.7659 124.223 57.5698 123.721 57.5698H122.581V57.5678ZM124.554 60.3172C124.554 59.883 124.276 59.6729 123.733 59.6729H122.579V60.9635H123.733C124.274 60.9635 124.554 60.7534 124.554 60.3192V60.3172Z" fill="#E1D9C1"></path>
    <path d="M134.267 56.5994V61.9299H133.099V58.4503L130.764 61.9299H129.624V56.5994H130.792V60.065L133.113 56.5994H134.267Z" fill="#E1D9C1"></path>
    <path d="M142.605 56.5994V61.9299H141.409V59.925H140.13C138.879 59.925 138.213 59.3367 138.213 58.2141V56.6014H139.408V58.0881C139.408 58.6344 139.658 58.8605 140.243 58.8605H141.411V56.6014H142.607L142.605 56.5994Z" fill="#E1D9C1"></path>
    <path d="M150.163 60.8794H147.855L147.48 61.9319H146.229L148.287 56.6013H149.76L151.818 61.9319H150.539L150.165 60.8794H150.163ZM149.788 59.8409L149.009 57.6518L148.23 59.8409H149.786H149.788Z" fill="#E1D9C1"></path>
    <path d="M14.906 15.0434H12.4217V5.01454H2.48434V15.0434H0V2.50732H14.906V15.0434Z" fill="#E1D9C1"></path>
    <path d="M17.3904 2.50732H32.2964V15.0434H29.8121V12.0339H19.8747V15.0434H17.3904V2.50732ZM29.8121 9.52872V5.01454H19.8747V9.52872H29.8121Z" fill="#E1D9C1"></path>
    <path d="M34.7808 2.50732H49.6868V10.7813L48.4437 12.0359H37.2631V15.0454H34.7788V2.50732H34.7808ZM47.2025 9.52872V5.01454H37.2651V9.52872H47.2025Z" fill="#E1D9C1"></path>
    <path d="M52.1692 2.50732H67.0752V15.0434H64.5909V12.0339H54.6535V15.0434H52.1692V2.50732ZM64.5929 9.52872V5.01454H54.6555V9.52872H64.5929Z" fill="#E1D9C1"></path>
    <path d="M72.0439 15.0434H69.5596V12.5362H72.0439V2.50732H84.4656V15.0434H81.9813V5.01454H74.5283V12.5362C74.5283 13.9148 73.41 15.0434 72.0439 15.0434Z" fill="#E1D9C1"></path>
    <path d="M101.856 5.01454H89.4343V7.52175H97.8806V10.029H89.4343V12.5362H101.856V15.0434H86.95V2.50732H101.856V5.01454Z" fill="#E1D9C1"></path>
    <path d="M106.824 15.0434H104.34V12.5362H106.824V2.50732H119.246V15.0434H116.762V5.01454H109.309V12.5362C109.309 13.9148 108.191 15.0434 106.824 15.0434Z" fill="#E1D9C1"></path>
    <path d="M121.729 2.50732H124.213V5.51678H132.164V15.0454H121.729V2.50732ZM129.679 12.5362V8.02399H124.213V12.5362H129.679Z" fill="#E1D9C1"></path>
    <path d="M149.554 15.0434H147.07V12.0339H137.132V15.0434H134.648V2.50732H137.132V9.52872H147.07V2.50732H149.554V15.0434Z" fill="#E1D9C1"></path>
    <path d="M166.944 15.0434H164.46V9.25059L154.523 15.0434H152.038V2.50732H154.523V12.16L164.46 6.36719V2.50732H166.944V15.0434Z" fill="#E1D9C1"></path>
    <path d="M184.333 15.0433H181.848V9.25047L171.911 15.0433H169.427V2.50721H171.911V12.1599L181.848 6.36708V2.50721H184.333V15.0433ZM173.65 0H175.637C176.333 0.70234 177.425 0.70234 178.121 0H180.108V2.00497H178.121C177.425 2.70731 176.333 2.70731 175.637 2.00497H173.65V0Z" fill="#E1D9C1"></path>
    <path d="M0 21.7285H14.906V26.7429L13.6629 27.9975L14.906 29.2522V34.2666H0V21.7305V21.7285ZM12.4217 26.7429V24.2357H2.48434V26.7429H12.4217ZM12.4217 31.7574V29.2502H2.48434V31.7574H12.4217Z" fill="#E1D9C1"></path>
    <path d="M32.2964 24.2358H19.8747V31.7574H32.2964V34.2646H18.6316L17.3884 33.01V22.9812L18.6316 21.7266H32.2964V24.2338V24.2358Z" fill="#E1D9C1"></path>
    <path d="M49.6868 24.2357H37.2651V26.7429H132.166V29.2502H37.2651V31.7574H132.166V34.2646H34.7808V21.7285H49.6868V24.2357Z" fill="#E1D9C1"></path>
    <path d="M149.554 24.2358H137.132V31.7574H149.554V34.2646H135.889L134.646 33.01V22.9812L135.889 21.7266H149.554V24.2338V24.2358Z" fill="#E1D9C1"></path>
    <path d="M152.036 21.7285H166.942V26.7429L165.699 27.9975L166.942 29.2522V34.2666H152.036V21.7305V21.7285ZM164.46 26.7429V24.2357H154.523V26.7429H164.46ZM164.46 31.7574V29.2502H154.523V31.7574H164.46Z" fill="#E1D9C1"></path>
    <path d="M171.911 21.7285V34.2646H169.427V21.7285H171.911Z" fill="#E1D9C1"></path>
    <path d="M189 24.2357H182.788V34.2646H180.304V24.2357H174.092V21.7285H188.998V24.2357H189Z" fill="#E1D9C1"></path>
  </g>
  <defs>
    <clipPath id="clip0_2003_246">
      <rect width="189" height="62" fill="white"></rect>
    </clipPath>
  </defs>
</svg>
